<?xml version="1.0" encoding="UTF-8"?>
<svg xmlns="http://www.w3.org/2000/svg" xmlns:xlink="http://www.w3.org/1999/xlink" viewBox="0 0 64 64" width="64px" height="64px">
<g id="surface12198439">
<path style=" stroke:none;fill-rule:nonzero;fill:rgb(63.529414%,63.529414%,63.529414%);fill-opacity:1;" d="M 32 6.75 C 18.101562 6.75 6.75 18.101562 6.75 32 C 6.75 45.898438 18.101562 57.25 32 57.25 C 45.898438 57.25 57.25 45.898438 57.25 32 C 57.25 18.101562 45.898438 6.75 32 6.75 Z M 32 9.75 C 44.25 9.75 54.25 19.75 54.25 32 C 54.25 44.25 44.25 54.25 32 54.25 C 19.75 54.25 9.75 44.25 9.75 32 C 9.75 19.75 19.75 9.75 32 9.75 Z M 32 15.5 C 31.148438 15.5 30.5 16.148438 30.5 17 L 30.5 29.402344 C 29.601562 29.902344 29 30.898438 29 32 C 29 33.648438 30.351562 35 32 35 C 33.101562 35 34.097656 34.398438 34.597656 33.5 L 42 33.5 C 42.851562 33.5 43.5 32.851562 43.5 32 C 43.5 31.148438 42.851562 30.5 42 30.5 L 34.597656 30.5 C 34.351562 30.050781 33.949219 29.648438 33.5 29.402344 L 33.5 17 C 33.5 16.148438 32.851562 15.5 32 15.5 Z M 32 15.5 "/>
</g>
</svg>
