<svg xmlns="http://www.w3.org/2000/svg" version="1.0" width="825.000000" height="725.000000" preserveAspectRatio="xMidYMid meet"><rect id="backgroundrect" width="100%" height="100%" x="0" y="0" fill="none" stroke="none"/>
<metadata>
Created by potrace 1.16, written by Peter Selinger 2001-2019
</metadata>

<g class="currentLayer" style=""><title>Layer 1</title><g transform="translate(0,725) scale(0.10000000149011612,-0.10000000149011612) " fill="#d54e21" stroke="none" id="svg_1" class="selected" fill-opacity="1">
<path d="M2125 7230 c-307 -19 -627 -113 -905 -265 -202 -111 -345 -218 -515 -389 -345 -347 -552 -758 -630 -1251 -22 -137 -30 -451 -16 -605 123 -1338 1157 -2755 2901 -3976 464 -325 1111 -714 1188 -714 40 0 79 20 331 165 603 346 1251 805 1731 1224 1030 901 1679 1825 1929 2746 85 313 117 578 108 875 -11 322 -63 566 -184 850 -300 706 -962 1211 -1738 1325 -129 19 -397 22 -530 5 -405 -50 -797 -223 -1152 -509 -121 -97 -325 -306 -418 -428 -38 -51 -72 -92 -75 -92 -3 0 -36 41 -75 92 -94 123 -297 331 -420 430 -368 297 -828 490 -1220 512 -55 3 -122 7 -150 9 -27 1 -99 0 -160 -4z m300 -221 c640 -55 1180 -399 1593 -1015 62 -93 76 -104 137 -104 49 1 70 20 146 130 530 776 1298 1121 2124 955 691 -139 1273 -655 1499 -1330 185 -551 138 -1173 -138 -1845 -377 -915 -1168 -1834 -2317 -2692 -372 -278 -841 -584 -1207 -787 l-112 -63 -78 42 c-160 88 -530 315 -730 449 -637 425 -1116 813 -1597 1295 -695 697 -1137 1385 -1359 2117 -132 438 -156 904 -66 1288 183 776 789 1371 1554 1526 200 40 363 51 551 34z" id="svg_2" fill="#d54e21"/>
</g></g></svg>