<svg xmlns="http://www.w3.org/2000/svg" version="1.0" width="1281.000000" height="895.000000" preserveAspectRatio="xMidYMid meet"><rect id="backgroundrect" width="100%" height="100%" x="0" y="0" fill="none" stroke="none"/>
<metadata>
Created by potrace 1.16, written by Peter Selinger 2001-2019
</metadata>

<g class="currentLayer" style=""><title>Layer 1</title><g transform="translate(0,895) scale(0.10000000149011612,-0.10000000149011612) " fill="#d54e21" stroke="none" id="svg_1" class="selected" fill-opacity="1">
<path d="M3890 8919 c-682 -71 -1342 -389 -1808 -873 -493 -512 -758 -1161 -802 -1962 -5 -99 -7 -205 -5 -235 2 -30 7 -108 10 -174 21 -427 154 -914 360 -1326 167 -332 500 -813 879 -1269 238 -286 623 -682 906 -931 41 -36 120 -106 175 -155 280 -247 577 -492 939 -772 426 -329 958 -698 1466 -1015 340 -213 328 -207 403 -207 l64 0 194 122 c345 215 680 436 964 633 521 360 1144 849 1575 1233 382 342 876 833 1104 1100 301 350 542 695 758 1082 241 433 350 726 430 1155 21 111 23 154 25 574 4 453 4 454 -22 585 -56 284 -105 452 -192 660 -175 416 -385 732 -671 1008 -425 409 -975 660 -1657 755 -185 25 -600 25 -775 0 -408 -60 -758 -193 -1105 -421 -200 -132 -326 -236 -521 -431 l-171 -171 -184 181 c-209 205 -298 279 -487 405 -365 243 -777 393 -1227 445 -142 16 -482 18 -625 4z" id="svg_2" fill="#d54e21"/>
</g></g></svg>