<svg width="323" height="140" viewBox="0 0 323 140" fill="none" xmlns="http://www.w3.org/2000/svg">
<path d="M21.744 124.664C21.744 127.652 19.322 130.074 16.334 130.074C13.346 130.074 10.924 127.652 10.924 124.664V76.008C10.924 73.02 13.346 70.597 16.334 70.597C19.322 70.597 21.744 73.02 21.744 76.008V124.664Z" fill="#80C3FF"/>
<path d="M16.334 70.597C19.322 70.597 21.744 73.02 21.744 76.008V124.664C21.744 127.652 19.322 130.074 16.334 130.074" fill="#2A8BF4"/>
<path d="M21.744 124.664C21.744 127.652 19.322 130.074 16.334 130.074C13.346 130.074 10.924 127.652 10.924 124.664V76.008C10.924 73.02 13.346 70.597 16.334 70.597C19.322 70.597 21.744 73.02 21.744 76.008V124.664Z" stroke="#33363A" stroke-width="3" stroke-miterlimit="10" stroke-linecap="round" stroke-linejoin="round"/>
<path d="M16.334 120.547V121.881" stroke="#33363A" stroke-width="3" stroke-miterlimit="10" stroke-linecap="round" stroke-linejoin="round"/>
<path d="M16.334 27.872V49.039" stroke="#33363A" stroke-width="3" stroke-miterlimit="10" stroke-linecap="round" stroke-linejoin="round"/>
<path d="M16.334 53.194V69.361" stroke="#33363A" stroke-width="5" stroke-miterlimit="10" stroke-linecap="round" stroke-linejoin="round"/>
<path d="M23.244 28.372V41.718C23.244 45.534 20.15 48.628 16.334 48.628C12.518 48.628 9.42398 45.534 9.42398 41.718V28.372" stroke="#33363A" stroke-width="3" stroke-miterlimit="10" stroke-linecap="round" stroke-linejoin="round"/>
<path d="M23.686 52.275C23.686 54.574 21.821 56.438 19.522 56.438H13.147C10.848 56.438 8.98499 54.574 8.98499 52.275V44.569C8.98499 42.269 10.848 40.405 13.147 40.405H19.522C21.821 40.405 23.686 42.269 23.686 44.569V52.275Z" fill="#33363A"/>
<path d="M23.686 52.275C23.686 54.574 21.821 56.438 19.522 56.438H13.147C10.848 56.438 8.98499 54.574 8.98499 52.275V44.569C8.98499 42.269 10.848 40.405 13.147 40.405H19.522C21.821 40.405 23.686 42.269 23.686 44.569V52.275Z" stroke="#33363A" stroke-width="3" stroke-miterlimit="10" stroke-linecap="round" stroke-linejoin="round"/>
<path d="M130.936 80.869C130.936 109.228 107.948 132.219 79.584 132.219C51.227 132.219 28.236 109.229 28.236 80.869C28.236 52.509 51.226 29.518 79.584 29.518C107.947 29.519 130.936 52.509 130.936 80.869Z" fill="white"/>
<path d="M79.584 29.519C107.947 29.519 130.936 52.509 130.936 80.87C130.936 109.229 107.948 132.22 79.584 132.22" fill="#C8DBDB"/>
<path d="M130.936 80.869C130.936 109.228 107.948 132.219 79.584 132.219C51.227 132.219 28.236 109.229 28.236 80.869C28.236 52.509 51.226 29.518 79.584 29.518C107.947 29.519 130.936 52.509 130.936 80.869Z" stroke="#33363A" stroke-width="3" stroke-miterlimit="10" stroke-linecap="round" stroke-linejoin="round"/>
<path d="M79.584 114.987C98.4269 114.987 113.702 99.7119 113.702 80.869C113.702 62.0262 98.4269 46.751 79.584 46.751C60.7412 46.751 45.466 62.0262 45.466 80.869C45.466 99.7119 60.7412 114.987 79.584 114.987Z" fill="white"/>
<path d="M45.467 80.869C45.467 62.026 60.742 46.751 79.584 46.751C98.43 46.751 113.703 62.026 113.703 80.869" fill="#C8DBDB"/>
<path d="M79.584 114.987C98.4269 114.987 113.702 99.7119 113.702 80.869C113.702 62.0262 98.4269 46.751 79.584 46.751C60.7412 46.751 45.466 62.0262 45.466 80.869C45.466 99.7119 60.7412 114.987 79.584 114.987Z" stroke="#33363A" stroke-width="3" stroke-miterlimit="10" stroke-linecap="round" stroke-linejoin="round"/>
<path d="M79.585 101.481C90.9698 101.481 100.199 92.2518 100.199 80.867C100.199 69.4822 90.9698 60.253 79.585 60.253C68.2002 60.253 58.971 69.4822 58.971 80.867C58.971 92.2518 68.2002 101.481 79.585 101.481Z" fill="#C8DBDB"/>
<path d="M79.584 101.482C68.199 101.482 58.971 92.252 58.971 80.867C58.971 69.482 68.2 60.253 79.584 60.253" fill="white"/>
<path d="M128.609 61.5C121.515 29.438 89.775 9.199 57.713 16.293L70.561 74.344L128.609 61.5Z" fill="#83ED88"/>
<path d="M122.184 62.923C115.877 34.409 87.649 16.409 59.135 22.718L70.561 74.343L122.184 62.923Z" fill="#5FCE96"/>
<path d="M118.152 63.814C112.336 37.528 86.314 20.934 60.027 26.75L70.56 74.344L118.152 63.814Z" fill="#F42535"/>
<path d="M70.561 74.343L118.153 63.815C115.245 50.671 107.286 39.952 96.766 33.244L70.561 74.343Z" fill="#FC4259"/>
<path d="M114.877 64.538L118.152 63.814C112.336 37.528 86.314 20.934 60.027 26.75L60.756 30.026C84.863 26.329 108.059 41.119 114.877 64.538Z" fill="#D60024"/>
<path d="M115.631 55.8C111.74 46.312 105.053 38.529 96.766 33.243L94.299 37.112C103.963 43.276 111.467 52.828 114.877 64.538L118.152 63.814C117.707 61.799 117.131 59.851 116.457 57.958C116.195 57.229 115.922 56.509 115.631 55.8Z" fill="#F42535"/>
<path d="M60.027 26.75L70.561 74.344L118.152 63.814L74.258 68.544L60.027 26.75Z" fill="#FC4259"/>
<path d="M74.258 68.541L70.561 74.343V74.344L118.152 63.814L74.258 68.544V68.541Z" fill="#FF647E"/>
<path d="M128.609 61.5C121.515 29.438 89.775 9.199 57.713 16.293L70.561 74.344L128.609 61.5Z" stroke="#33363A" stroke-width="3" stroke-miterlimit="10" stroke-linecap="round" stroke-linejoin="round"/>
<path d="M118.152 63.814C112.336 37.528 86.314 20.934 60.027 26.75" stroke="#33363A" stroke-width="3" stroke-miterlimit="10" stroke-linecap="round" stroke-linejoin="round"/>
<path d="M87.787 62.153C87.787 78.068 74.883 90.968 58.971 90.968C43.055 90.968 30.153 78.068 30.153 62.153C30.153 46.238 43.055 33.336 58.971 33.336C74.883 33.336 87.787 46.238 87.787 62.153Z" fill="#A07F3C"/>
<path d="M87.787 62.153C87.787 78.068 74.883 90.968 58.971 90.968C43.055 90.968 30.153 78.068 30.153 62.153" fill="#84692C"/>
<path d="M58.971 33.336V90.969C74.883 90.969 87.787 78.069 87.787 62.154C87.787 46.239 74.883 33.336 58.971 33.336Z" fill="#84692C"/>
<path d="M58.971 62.153V90.968C74.883 90.968 87.787 78.068 87.787 62.153H58.971V62.153Z" fill="#705622"/>
<path d="M87.787 62.153C87.787 78.068 74.883 90.968 58.971 90.968C43.055 90.968 30.153 78.068 30.153 62.153C30.153 46.238 43.055 33.336 58.971 33.336C74.883 33.336 87.787 46.238 87.787 62.153Z" stroke="#33363A" stroke-width="3" stroke-miterlimit="10" stroke-linecap="round" stroke-linejoin="round"/>
<path d="M58.97 81.531C69.6722 81.531 78.348 72.8552 78.348 62.153C78.348 51.4508 69.6722 42.775 58.97 42.775C48.2678 42.775 39.592 51.4508 39.592 62.153C39.592 72.8552 48.2678 81.531 58.97 81.531Z" fill="#BEDD05"/>
<path d="M39.592 62.153C39.592 51.451 48.268 42.775 58.971 42.775Z" fill="#DEF21D"/>
<path d="M39.592 62.153C39.592 72.856 48.268 81.53 58.971 81.53C69.672 81.53 78.348 72.856 78.348 62.153H39.592V62.153Z" fill="#85C606"/>
<path d="M39.592 62.153C39.592 72.856 48.268 81.53 58.971 81.53Z" fill="#BEDD05"/>
<path d="M58.971 42.775V81.53C69.672 81.53 78.348 72.856 78.348 62.153C78.348 51.451 69.672 42.775 58.971 42.775Z" fill="#85C606"/>
<path d="M78.348 62.153C78.348 51.451 69.672 42.775 58.971 42.775Z" fill="#52C408"/>
<path d="M58.971 62.153V81.53C69.672 81.53 78.348 72.856 78.348 62.153H58.971V62.153Z" fill="#52C408"/>
<path d="M58.971 81.53C69.672 81.53 78.348 72.856 78.348 62.153Z" fill="#25C10A"/>
<path d="M58.971 69.034C62.7718 69.034 65.853 65.9528 65.853 62.152C65.853 58.3512 62.7718 55.27 58.971 55.27C55.1701 55.27 52.089 58.3512 52.089 62.152C52.089 65.9528 55.1701 69.034 58.971 69.034Z" fill="#BEDD05"/>
<path d="M58.971 69.034C62.772 69.034 65.852 65.954 65.852 62.153C65.852 58.352 62.772 55.27 58.971 55.27V69.034V69.034Z" fill="#85C606"/>
<path d="M52.086 62.153H65.852C65.852 58.352 62.772 55.27 58.971 55.27C55.168 55.271 52.086 58.353 52.086 62.153Z" fill="#85C606"/>
<path d="M58.971 62.153H65.852C65.852 58.352 62.772 55.27 58.971 55.27V62.153V62.153Z" fill="#52C408"/>
<path d="M58.97 66.279C61.2487 66.279 63.096 64.4317 63.096 62.153C63.096 59.8743 61.2487 58.027 58.97 58.027C56.6913 58.027 54.844 59.8743 54.844 62.153C54.844 64.4317 56.6913 66.279 58.97 66.279Z" fill="#BEDD05"/>
<path d="M63.096 62.153C63.096 59.874 61.25 58.027 58.971 58.025C56.69 58.027 54.844 59.874 54.844 62.153H63.096Z" fill="#85C606"/>
<path d="M58.971 66.28V58.025C56.69 58.027 54.844 59.874 54.844 62.153C54.844 64.432 56.689 66.28 58.971 66.28Z" fill="#85C606"/>
<path d="M58.971 62.153V58.025C56.69 58.027 54.844 59.874 54.844 62.153H58.971Z" fill="#52C408"/>
<path d="M58.971 81.53C69.6726 81.53 78.348 72.8546 78.348 62.153C78.348 51.4514 69.6726 42.776 58.971 42.776C48.2694 42.776 39.594 51.4514 39.594 62.153C39.594 72.8546 48.2694 81.53 58.971 81.53Z" stroke="#33363A" stroke-width="3" stroke-miterlimit="10" stroke-linecap="round" stroke-linejoin="round"/>
<path d="M95.33 40.122C92.789 47.621 78.387 110.103 85.885 112.644C93.385 115.185 119.942 56.823 122.485 49.325C125.028 41.827 120.282 35.837 112.782 33.293C105.285 30.753 97.873 32.624 95.33 40.122Z" fill="#FFE108"/>
<path d="M95.33 40.122C92.789 47.621 78.387 110.103 85.885 112.644C93.385 115.185 119.942 56.823 122.485 49.325C125.028 41.827 118.829 40.125 111.329 37.583C103.832 35.041 97.873 32.624 95.33 40.122Z" fill="#FFB206"/>
<path d="M95.33 40.122C92.789 47.621 78.387 110.103 85.885 112.644C93.385 115.185 119.942 56.823 122.485 49.325" fill="#FF8103"/>
<path d="M85.885 112.645C80.209 110.721 87.082 74.453 91.862 53.684L116.995 62.204C108.16 81.595 91.562 114.568 85.885 112.645Z" fill="#FF6B06"/>
<path d="M85.885 112.645C81.658 111.211 84.395 90.707 88.041 71.759L109.035 78.875C100.408 96.137 90.115 114.078 85.885 112.645Z" fill="#ED4706"/>
<path d="M85.885 112.645C82.932 111.643 83.379 101.333 85.16 88.749L100.994 94.115C94.754 105.188 88.84 113.646 85.885 112.645Z" fill="#D83705"/>
<path d="M95.33 40.122C92.789 47.621 78.387 110.103 85.885 112.644C93.385 115.185 119.942 56.823 122.485 49.325C125.028 41.827 120.282 35.837 112.782 33.293C105.285 30.753 97.873 32.624 95.33 40.122Z" stroke="#33363A" stroke-width="3" stroke-miterlimit="10" stroke-linecap="round" stroke-linejoin="round"/>
<path d="M113.168 33.935C114.539 33.663 115.43 32.327 115.156 30.956C114.082 25.558 117.595 20.289 122.994 19.213C124.367 18.939 125.26 17.605 124.986 16.233C124.712 14.861 123.377 13.97 122.006 14.244C113.865 15.867 108.567 23.808 110.188 31.945C110.461 33.318 111.799 34.209 113.168 33.935Z" fill="#92FC6B"/>
<path d="M122.662 17.558C123.398 17.411 124.113 17.605 124.672 18.019C124.317 18.615 123.729 19.067 122.994 19.213C117.596 20.289 114.082 25.558 115.156 30.956C115.429 32.326 114.539 33.662 113.168 33.935C112.145 34.14 111.143 33.695 110.586 32.886C110.309 25.632 115.322 19.021 122.662 17.558Z" fill="#70D63A"/>
<path d="M113.168 33.935C114.539 33.663 115.43 32.327 115.156 30.956C114.082 25.558 117.595 20.289 122.994 19.213C124.367 18.939 125.26 17.605 124.986 16.233C124.712 14.861 123.377 13.97 122.006 14.244C113.865 15.867 108.567 23.808 110.188 31.945C110.461 33.318 111.799 34.209 113.168 33.935Z" stroke="#33363A" stroke-width="3" stroke-miterlimit="10" stroke-linecap="round" stroke-linejoin="round"/>
<path d="M114.418 33.379C115.469 32.456 115.574 30.855 114.65 29.804C111.019 25.667 111.429 19.347 115.568 15.716C116.617 14.792 116.724 13.193 115.8 12.141C114.876 11.089 113.277 10.986 112.224 11.908C105.986 17.383 105.367 26.912 110.843 33.146C111.766 34.198 113.365 34.303 114.418 33.379Z" fill="#92FC6B"/>
<path d="M114.453 14.446C115.014 13.953 115.732 13.762 116.42 13.843C116.41 14.534 116.129 15.222 115.568 15.715C111.429 19.346 111.019 25.666 114.65 29.803C115.574 30.854 115.468 32.455 114.418 33.378C113.635 34.067 112.545 34.182 111.656 33.76C107.789 27.617 108.826 19.386 114.453 14.446Z" fill="#70D63A"/>
<path d="M114.418 33.379C115.469 32.456 115.574 30.855 114.65 29.804C111.019 25.667 111.429 19.347 115.568 15.716C116.617 14.792 116.724 13.193 115.8 12.141C114.876 11.089 113.277 10.986 112.224 11.908C105.986 17.383 105.367 26.912 110.843 33.146C111.766 34.198 113.365 34.303 114.418 33.379Z" stroke="#33363A" stroke-width="3" stroke-miterlimit="10" stroke-linecap="round" stroke-linejoin="round"/>
<path d="M113.416 29.649C112.492 28.598 112.598 26.997 113.648 26.073C117.783 22.443 118.197 16.123 114.564 11.985C113.642 10.934 113.746 9.333 114.796 8.41C115.845 7.487 117.448 7.592 118.372 8.643C123.847 14.879 123.226 24.407 116.989 29.88C115.939 30.804 114.34 30.7 113.416 29.649Z" fill="#92FC6B"/>
<path d="M115.834 10.872C115.342 10.31 114.654 10.029 113.961 10.018C113.881 10.706 114.072 11.424 114.565 11.985C118.198 16.123 117.784 22.443 113.649 26.073C112.598 26.997 112.493 28.598 113.417 29.649C114.105 30.433 115.171 30.689 116.105 30.386C120.734 24.796 120.773 16.499 115.834 10.872Z" fill="#70D63A"/>
<path d="M113.416 29.649C112.492 28.598 112.598 26.997 113.648 26.073C117.783 22.443 118.197 16.123 114.564 11.985C113.642 10.934 113.746 9.333 114.796 8.41C115.845 7.487 117.448 7.592 118.372 8.643C123.847 14.879 123.226 24.407 116.989 29.88C115.939 30.804 114.34 30.7 113.416 29.649Z" stroke="#33363A" stroke-width="3" stroke-miterlimit="10" stroke-linecap="round" stroke-linejoin="round"/>
<path d="M112.76 28.447C112.489 27.076 113.377 25.741 114.75 25.468C120.146 24.392 123.662 19.124 122.59 13.726C122.317 12.354 123.207 11.021 124.578 10.747C125.949 10.472 127.283 11.362 127.558 12.735C129.181 20.874 123.878 28.814 115.74 30.437C114.369 30.71 113.033 29.819 112.76 28.447Z" fill="#92FC6B"/>
<path d="M124.244 13.396C124.098 12.664 123.648 12.078 123.051 11.722C122.637 12.277 122.442 12.993 122.59 13.726C123.662 19.124 120.147 24.392 114.75 25.468C113.377 25.741 112.488 27.076 112.76 28.447C112.965 29.471 113.762 30.225 114.719 30.429C121.527 27.903 125.709 20.738 124.244 13.396Z" fill="#70D63A"/>
<path d="M112.76 28.447C112.489 27.076 113.377 25.741 114.75 25.468C120.146 24.392 123.662 19.124 122.59 13.726C122.317 12.354 123.207 11.021 124.578 10.747C125.949 10.472 127.283 11.362 127.558 12.735C129.181 20.874 123.878 28.814 115.74 30.437C114.369 30.71 113.033 29.819 112.76 28.447Z" stroke="#33363A" stroke-width="3" stroke-miterlimit="10" stroke-linecap="round" stroke-linejoin="round"/>
<path d="M111.725 36.298C110.399 35.849 109.688 34.41 110.137 33.086C111.907 27.872 109.102 22.193 103.889 20.426C102.565 19.977 101.852 18.539 102.301 17.214C102.752 15.889 104.19 15.179 105.516 15.627C113.373 18.292 117.602 26.853 114.936 34.712C114.488 36.037 113.051 36.747 111.725 36.298Z" fill="#92FC6B"/>
<path d="M104.43 18.827C103.723 18.587 102.987 18.685 102.383 19.024C102.656 19.659 103.182 20.186 103.889 20.425C109.102 22.193 111.907 27.871 110.137 33.085C109.688 34.409 110.399 35.848 111.725 36.297C112.711 36.631 113.764 36.319 114.42 35.592C115.635 28.435 111.52 21.23 104.43 18.827Z" fill="#70D63A"/>
<path d="M111.725 36.298C110.399 35.849 109.688 34.41 110.137 33.086C111.907 27.872 109.102 22.193 103.889 20.426C102.565 19.977 101.852 18.539 102.301 17.214C102.752 15.889 104.19 15.179 105.516 15.627C113.373 18.292 117.602 26.853 114.936 34.712C114.488 36.037 113.051 36.747 111.725 36.298Z" stroke="#33363A" stroke-width="3" stroke-miterlimit="10" stroke-linecap="round" stroke-linejoin="round"/>
<path d="M111.799 36.323C113.121 36.771 114.561 36.061 115.01 34.737C116.776 29.524 122.455 26.719 127.67 28.486C128.992 28.934 130.43 28.227 130.881 26.901C131.33 25.576 130.619 24.137 129.293 23.687C121.436 21.024 112.875 25.25 110.211 33.11C109.762 34.436 110.473 35.874 111.799 36.323Z" fill="#92FC6B"/>
<path d="M128.211 26.888C128.918 27.127 129.441 27.653 129.717 28.29C129.112 28.628 128.377 28.726 127.67 28.486C122.455 26.719 116.775 29.524 115.01 34.737C114.561 36.061 113.121 36.771 111.799 36.323C110.807 35.987 110.164 35.1 110.084 34.123C113.471 27.701 121.119 24.483 128.211 26.888Z" fill="#70D63A"/>
<path d="M111.799 36.323C113.121 36.771 114.561 36.061 115.01 34.737C116.776 29.524 122.455 26.719 127.67 28.486C128.992 28.934 130.43 28.227 130.881 26.901C131.33 25.576 130.619 24.137 129.293 23.687C121.436 21.024 112.875 25.25 110.211 33.11C109.762 34.436 110.473 35.874 111.799 36.323Z" stroke="#33363A" stroke-width="3" stroke-miterlimit="10" stroke-linecap="round" stroke-linejoin="round"/>
<path d="M114.873 46.745L121.475 48.983" stroke="#33363A" stroke-width="3" stroke-miterlimit="10" stroke-linecap="round" stroke-linejoin="round"/>
<path d="M110.07 45.049L108.922 44.684" stroke="#33363A" stroke-width="3" stroke-miterlimit="10" stroke-linecap="round" stroke-linejoin="round"/>
<path d="M104.049 43.048L104.502 43.192" stroke="#33363A" stroke-width="3" stroke-miterlimit="10" stroke-linecap="round" stroke-linejoin="round"/>
<path d="M99.785 41.603L100.236 41.747" stroke="#33363A" stroke-width="3" stroke-miterlimit="10" stroke-linecap="round" stroke-linejoin="round"/>
<path d="M112.178 54.695L118.779 56.933" stroke="#33363A" stroke-width="3" stroke-miterlimit="10" stroke-linecap="round" stroke-linejoin="round"/>
<path d="M107.375 52.998L106.227 52.634" stroke="#33363A" stroke-width="3" stroke-miterlimit="10" stroke-linecap="round" stroke-linejoin="round"/>
<path d="M101.352 50.999L101.807 51.143" stroke="#33363A" stroke-width="3" stroke-miterlimit="10" stroke-linecap="round" stroke-linejoin="round"/>
<path d="M97.088 49.553L97.543 49.696" stroke="#33363A" stroke-width="3" stroke-miterlimit="10" stroke-linecap="round" stroke-linejoin="round"/>
<path d="M109.07 62.507L115.674 64.745" stroke="#33363A" stroke-width="3" stroke-miterlimit="10" stroke-linecap="round" stroke-linejoin="round"/>
<path d="M104.271 60.811L103.123 60.446" stroke="#33363A" stroke-width="3" stroke-miterlimit="10" stroke-linecap="round" stroke-linejoin="round"/>
<path d="M98.246 58.81L98.701 58.954" stroke="#33363A" stroke-width="3" stroke-miterlimit="10" stroke-linecap="round" stroke-linejoin="round"/>
<path d="M93.982 57.364L94.436 57.508" stroke="#33363A" stroke-width="3" stroke-miterlimit="10" stroke-linecap="round" stroke-linejoin="round"/>
<path d="M105.354 70.109L111.953 72.348" stroke="#33363A" stroke-width="3" stroke-miterlimit="10" stroke-linecap="round" stroke-linejoin="round"/>
<path d="M100.553 68.414L99.402 68.048" stroke="#33363A" stroke-width="3" stroke-miterlimit="10" stroke-linecap="round" stroke-linejoin="round"/>
<path d="M94.527 66.413L94.98 66.558" stroke="#33363A" stroke-width="3" stroke-miterlimit="10" stroke-linecap="round" stroke-linejoin="round"/>
<path d="M90.266 64.967L90.717 65.111" stroke="#33363A" stroke-width="3" stroke-miterlimit="10" stroke-linecap="round" stroke-linejoin="round"/>
<path d="M102.082 77.866L108.236 79.952" stroke="#33363A" stroke-width="3" stroke-miterlimit="10" stroke-linecap="round" stroke-linejoin="round"/>
<path d="M97.611 76.28L96.537 75.94" stroke="#33363A" stroke-width="3" stroke-miterlimit="10" stroke-linecap="round" stroke-linejoin="round"/>
<path d="M91.994 74.418L92.416 74.552" stroke="#33363A" stroke-width="3" stroke-miterlimit="10" stroke-linecap="round" stroke-linejoin="round"/>
<path d="M88.02 73.07L88.441 73.204" stroke="#33363A" stroke-width="3" stroke-miterlimit="10" stroke-linecap="round" stroke-linejoin="round"/>
<path d="M97.709 85.247L104.312 87.485" stroke="#33363A" stroke-width="3" stroke-miterlimit="10" stroke-linecap="round" stroke-linejoin="round"/>
<path d="M92.906 83.55L91.758 83.186" stroke="#33363A" stroke-width="3" stroke-miterlimit="10" stroke-linecap="round" stroke-linejoin="round"/>
<path d="M86.885 81.55L87.338 81.694" stroke="#33363A" stroke-width="3" stroke-miterlimit="10" stroke-linecap="round" stroke-linejoin="round"/>
<path d="M93.578 92.711L100.182 94.949" stroke="#33363A" stroke-width="3" stroke-miterlimit="10" stroke-linecap="round" stroke-linejoin="round"/>
<path d="M88.777 91.014L87.629 90.648" stroke="#33363A" stroke-width="3" stroke-miterlimit="10" stroke-linecap="round" stroke-linejoin="round"/>
<path d="M89.168 100.08L95.771 102.318" stroke="#33363A" stroke-width="3" stroke-miterlimit="10" stroke-linecap="round" stroke-linejoin="round"/>
<path d="M85.391 98.73L84.242 98.363" stroke="#33363A" stroke-width="3" stroke-miterlimit="10" stroke-linecap="round" stroke-linejoin="round"/>
<path d="M84.295 107.291L90.896 109.529" stroke="#33363A" stroke-width="3" stroke-miterlimit="10" stroke-linecap="round" stroke-linejoin="round"/>
<path d="M116.033 101.602C116.033 118.709 99.713 119.407 79.586 119.407C59.459 119.407 43.141 118.71 43.141 101.602C43.141 84.498 59.459 70.628 79.586 70.628C99.713 70.628 116.033 84.497 116.033 101.602Z" fill="#C17E25"/>
<path d="M116.033 101.602C116.033 118.709 99.713 119.407 79.586 119.407C59.459 119.407 43.141 118.71 43.141 101.602C43.141 84.498 59.459 70.628 79.586 70.628C99.713 70.628 116.033 84.497 116.033 101.602Z" fill="white"/>
<path d="M116.033 101.602C116.033 118.709 99.713 119.407 79.586 119.407C59.459 119.407 43.141 118.71 43.141 101.602C43.141 84.498 59.459 101.688 79.586 101.688C99.713 101.688 116.033 84.497 116.033 101.602Z" fill="#F4F3E9"/>
<path d="M79.586 110.547C61.494 110.547 46.482 96.66 43.633 106.276C46.471 118.835 61.485 119.407 79.586 119.407C97.69 119.407 112.703 118.835 115.543 106.276C112.689 96.66 97.678 110.547 79.586 110.547Z" fill="#E0DECE"/>
<path d="M116.033 101.602C116.033 118.709 99.713 119.407 79.586 119.407C59.459 119.407 43.141 118.71 43.141 101.602C43.141 84.498 59.459 70.628 79.586 70.628C99.713 70.628 116.033 84.497 116.033 101.602Z" stroke="#33363A" stroke-width="3" stroke-miterlimit="10" stroke-linecap="round" stroke-linejoin="round"/>
<path d="M97.236 96.582C97.236 113.092 89.334 114.9 79.586 114.9C69.838 114.9 61.936 113.091 61.936 96.582C61.936 88.125 69.838 81.27 79.586 81.27C89.334 81.27 97.236 88.125 97.236 96.582Z" fill="#D3D1C1"/>
<path d="M97.236 96.582C97.236 105.037 89.334 108.764 79.586 108.764C69.838 108.764 61.936 105.037 61.936 96.582C61.936 88.125 69.838 81.27 79.586 81.27C89.334 81.27 97.236 88.125 97.236 96.582Z" fill="#FFBC00"/>
<path d="M79.586 84.214C88.756 84.214 96.289 90.279 97.15 98.035C97.207 97.566 97.236 97.084 97.236 96.582C97.236 88.125 89.334 81.27 79.586 81.27C69.838 81.27 61.936 88.124 61.936 96.582C61.936 97.084 61.967 97.566 62.022 98.035C62.883 90.279 70.418 84.214 79.586 84.214Z" fill="#FFCE00"/>
<path d="M97.236 96.582C97.236 105.037 89.334 108.764 79.586 108.764C69.838 108.764 61.936 105.037 61.936 96.582C61.936 88.125 69.838 96.555 79.586 96.555C89.334 96.555 97.236 88.125 97.236 96.582Z" fill="#FF9100"/>
<path d="M97.236 96.582C97.236 105.037 89.334 108.764 79.586 108.764C69.838 108.764 61.936 105.037 61.936 96.582C61.936 88.125 69.838 81.27 79.586 81.27C89.334 81.27 97.236 88.125 97.236 96.582Z" stroke="#33363A" stroke-width="3" stroke-miterlimit="10" stroke-linecap="round" stroke-linejoin="round"/>
<path d="M67.148 91.873C67.769 87.481 74.613 84.438 77.779 84.438" stroke="#FFEF5A" stroke-width="4" stroke-miterlimit="10" stroke-linecap="round" stroke-linejoin="round"/>
<path d="M66.889 96.371C66.92 96.156 67.25 96.01 67.405 96.01" stroke="#FFEF5A" stroke-width="4" stroke-miterlimit="10" stroke-linecap="round" stroke-linejoin="round"/>
<path d="M67.143 99.723C67.151 99.67 67.231 99.635 67.268 99.635" stroke="#FFEF5A" stroke-width="2" stroke-miterlimit="10" stroke-linecap="round" stroke-linejoin="round"/>
<path d="M177.45 92L170.7 82.25H170.3H163.25V92H155.15V57H170.3C173.4 57 176.083 57.5167 178.35 58.55C180.65 59.5833 182.417 61.05 183.65 62.95C184.883 64.85 185.5 67.1 185.5 69.7C185.5 72.3 184.867 74.55 183.6 76.45C182.367 78.3167 180.6 79.75 178.3 80.75L186.15 92H177.45ZM177.3 69.7C177.3 67.7333 176.667 66.2333 175.4 65.2C174.133 64.1333 172.283 63.6 169.85 63.6H163.25V75.8H169.85C172.283 75.8 174.133 75.2667 175.4 74.2C176.667 73.1333 177.3 71.6333 177.3 69.7ZM217.968 78.65C217.968 78.75 217.918 79.45 217.818 80.75H197.468C197.834 82.4167 198.701 83.7333 200.068 84.7C201.434 85.6667 203.134 86.15 205.168 86.15C206.568 86.15 207.801 85.95 208.868 85.55C209.968 85.1167 210.984 84.45 211.918 83.55L216.068 88.05C213.534 90.95 209.834 92.4 204.968 92.4C201.934 92.4 199.251 91.8167 196.918 90.65C194.584 89.45 192.784 87.8 191.518 85.7C190.251 83.6 189.618 81.2167 189.618 78.55C189.618 75.9167 190.234 73.55 191.468 71.45C192.734 69.3167 194.451 67.6667 196.618 66.5C198.818 65.3 201.268 64.7 203.968 64.7C206.601 64.7 208.984 65.2667 211.118 66.4C213.251 67.5333 214.918 69.1667 216.118 71.3C217.351 73.4 217.968 75.85 217.968 78.65ZM204.018 70.6C202.251 70.6 200.768 71.1 199.568 72.1C198.368 73.1 197.634 74.4667 197.368 76.2H210.618C210.351 74.5 209.618 73.15 208.418 72.15C207.218 71.1167 205.751 70.6 204.018 70.6ZM231.961 65.7H238.861V71.7H232.161V92H224.361V71.7H220.211V65.7H224.361V64.5C224.361 61.4333 225.261 59 227.061 57.2C228.894 55.4 231.461 54.5 234.761 54.5C235.927 54.5 237.027 54.6333 238.061 54.9C239.127 55.1333 240.011 55.4833 240.711 55.95L238.661 61.6C237.761 60.9667 236.711 60.65 235.511 60.65C233.144 60.65 231.961 61.95 231.961 64.55V65.7ZM270.096 65.1V92H262.696V88.8C261.663 89.9667 260.43 90.8667 258.996 91.5C257.563 92.1 256.013 92.4 254.346 92.4C250.813 92.4 248.013 91.3833 245.946 89.35C243.88 87.3167 242.846 84.3 242.846 80.3V65.1H250.646V79.15C250.646 83.4833 252.463 85.65 256.096 85.65C257.963 85.65 259.463 85.05 260.596 83.85C261.73 82.6167 262.296 80.8 262.296 78.4V65.1H270.096ZM286.623 92.4C284.389 92.4 282.206 92.1333 280.073 91.6C277.939 91.0333 276.239 90.3333 274.973 89.5L277.573 83.9C278.773 84.6667 280.223 85.3 281.923 85.8C283.623 86.2667 285.289 86.5 286.923 86.5C290.223 86.5 291.873 85.6833 291.873 84.05C291.873 83.2833 291.423 82.7333 290.523 82.4C289.623 82.0667 288.239 81.7833 286.373 81.55C284.173 81.2167 282.356 80.8333 280.923 80.4C279.489 79.9667 278.239 79.2 277.173 78.1C276.139 77 275.623 75.4333 275.623 73.4C275.623 71.7 276.106 70.2 277.073 68.9C278.073 67.5667 279.506 66.5333 281.373 65.8C283.273 65.0667 285.506 64.7 288.073 64.7C289.973 64.7 291.856 64.9167 293.723 65.35C295.623 65.75 297.189 66.3167 298.423 67.05L295.823 72.6C293.456 71.2667 290.873 70.6 288.073 70.6C286.406 70.6 285.156 70.8333 284.323 71.3C283.489 71.7667 283.073 72.3667 283.073 73.1C283.073 73.9333 283.523 74.5167 284.423 74.85C285.323 75.1833 286.756 75.5 288.723 75.8C290.923 76.1667 292.723 76.5667 294.123 77C295.523 77.4 296.739 78.15 297.773 79.25C298.806 80.35 299.323 81.8833 299.323 83.85C299.323 85.5167 298.823 87 297.823 88.3C296.823 89.6 295.356 90.6167 293.423 91.35C291.523 92.05 289.256 92.4 286.623 92.4ZM321.735 90.7C320.968 91.2667 320.018 91.7 318.885 92C317.785 92.2667 316.618 92.4 315.385 92.4C312.185 92.4 309.702 91.5833 307.935 89.95C306.202 88.3167 305.335 85.9167 305.335 82.75V71.7H301.185V65.7H305.335V59.15H313.135V65.7H319.835V71.7H313.135V82.65C313.135 83.7833 313.418 84.6667 313.985 85.3C314.585 85.9 315.418 86.2 316.485 86.2C317.718 86.2 318.768 85.8667 319.635 85.2L321.735 90.7Z" fill="url(#paint0_linear_3_2)"/>
<defs>
<linearGradient id="paint0_linear_3_2" x1="323" y1="74" x2="142.973" y2="74" gradientUnits="userSpaceOnUse">
<stop stop-color="#FFE108"/>
<stop offset="1" stop-color="#52C408" stop-opacity="0.76"/>
</linearGradient>
</defs>
</svg>
