<svg width="167" height="39" viewBox="0 0 167 39" fill="none" xmlns="http://www.w3.org/2000/svg">
<path d="M22.45 38L15.7 28.25H15.3H8.25V38H0.15V3H15.3C18.4 3 21.0833 3.51666 23.35 4.55C25.65 5.58333 27.4167 7.05 28.65 8.95C29.8833 10.85 30.5 13.1 30.5 15.7C30.5 18.3 29.8667 20.55 28.6 22.45C27.3667 24.3167 25.6 25.75 23.3 26.75L31.15 38H22.45ZM22.3 15.7C22.3 13.7333 21.6667 12.2333 20.4 11.2C19.1333 10.1333 17.2833 9.6 14.85 9.6H8.25V21.8H14.85C17.2833 21.8 19.1333 21.2667 20.4 20.2C21.6667 19.1333 22.3 17.6333 22.3 15.7ZM62.9676 24.65C62.9676 24.75 62.9176 25.45 62.8176 26.75H42.4676C42.8342 28.4167 43.7009 29.7333 45.0676 30.7C46.4342 31.6667 48.1342 32.15 50.1676 32.15C51.5676 32.15 52.8009 31.95 53.8676 31.55C54.9676 31.1167 55.9842 30.45 56.9176 29.55L61.0676 34.05C58.5342 36.95 54.8342 38.4 49.9676 38.4C46.9342 38.4 44.2509 37.8167 41.9176 36.65C39.5842 35.45 37.7842 33.8 36.5176 31.7C35.2509 29.6 34.6176 27.2167 34.6176 24.55C34.6176 21.9167 35.2342 19.55 36.4676 17.45C37.7342 15.3167 39.4509 13.6667 41.6176 12.5C43.8176 11.3 46.2676 10.7 48.9676 10.7C51.6009 10.7 53.9842 11.2667 56.1176 12.4C58.2509 13.5333 59.9176 15.1667 61.1176 17.3C62.3509 19.4 62.9676 21.85 62.9676 24.65ZM49.0176 16.6C47.2509 16.6 45.7676 17.1 44.5676 18.1C43.3676 19.1 42.6342 20.4667 42.3676 22.2H55.6176C55.3509 20.5 54.6176 19.15 53.4176 18.15C52.2176 17.1167 50.7509 16.6 49.0176 16.6ZM76.9605 11.7H83.8605V17.7H77.1605V38H69.3605V17.7H65.2105V11.7H69.3605V10.5C69.3605 7.43333 70.2605 5 72.0605 3.2C73.8939 1.4 76.4605 0.499997 79.7605 0.499997C80.9272 0.499997 82.0272 0.633331 83.0605 0.899998C84.1272 1.13333 85.0105 1.48333 85.7105 1.95L83.6605 7.6C82.7605 6.96666 81.7105 6.65 80.5105 6.65C78.1439 6.65 76.9605 7.95 76.9605 10.55V11.7ZM115.096 11.1V38H107.696V34.8C106.663 35.9667 105.43 36.8667 103.996 37.5C102.563 38.1 101.013 38.4 99.3465 38.4C95.8132 38.4 93.0132 37.3833 90.9465 35.35C88.8798 33.3167 87.8465 30.3 87.8465 26.3V11.1H95.6465V25.15C95.6465 29.4833 97.4632 31.65 101.096 31.65C102.963 31.65 104.463 31.05 105.596 29.85C106.73 28.6167 107.296 26.8 107.296 24.4V11.1H115.096ZM131.623 38.4C129.389 38.4 127.206 38.1333 125.073 37.6C122.939 37.0333 121.239 36.3333 119.973 35.5L122.573 29.9C123.773 30.6667 125.223 31.3 126.923 31.8C128.623 32.2667 130.289 32.5 131.923 32.5C135.223 32.5 136.873 31.6833 136.873 30.05C136.873 29.2833 136.423 28.7333 135.523 28.4C134.623 28.0667 133.239 27.7833 131.373 27.55C129.173 27.2167 127.356 26.8333 125.923 26.4C124.489 25.9667 123.239 25.2 122.173 24.1C121.139 23 120.623 21.4333 120.623 19.4C120.623 17.7 121.106 16.2 122.073 14.9C123.073 13.5667 124.506 12.5333 126.373 11.8C128.273 11.0667 130.506 10.7 133.073 10.7C134.973 10.7 136.856 10.9167 138.723 11.35C140.623 11.75 142.189 12.3167 143.423 13.05L140.823 18.6C138.456 17.2667 135.873 16.6 133.073 16.6C131.406 16.6 130.156 16.8333 129.323 17.3C128.489 17.7667 128.073 18.3667 128.073 19.1C128.073 19.9333 128.523 20.5167 129.423 20.85C130.323 21.1833 131.756 21.5 133.723 21.8C135.923 22.1667 137.723 22.5667 139.123 23C140.523 23.4 141.739 24.15 142.773 25.25C143.806 26.35 144.323 27.8833 144.323 29.85C144.323 31.5167 143.823 33 142.823 34.3C141.823 35.6 140.356 36.6167 138.423 37.35C136.523 38.05 134.256 38.4 131.623 38.4ZM166.735 36.7C165.968 37.2667 165.018 37.7 163.885 38C162.785 38.2667 161.618 38.4 160.385 38.4C157.185 38.4 154.702 37.5833 152.935 35.95C151.202 34.3167 150.335 31.9167 150.335 28.75V17.7H146.185V11.7H150.335V5.15H158.135V11.7H164.835V17.7H158.135V28.65C158.135 29.7833 158.418 30.6667 158.985 31.3C159.585 31.9 160.418 32.2 161.485 32.2C162.718 32.2 163.768 31.8667 164.635 31.2L166.735 36.7Z" fill="url(#paint0_linear_2_172)"/>
<defs>
<linearGradient id="paint0_linear_2_172" x1="168" y1="20" x2="-12.0267" y2="20" gradientUnits="userSpaceOnUse">
<stop stop-color="#FFE108"/>
<stop offset="1" stop-color="#52C408" stop-opacity="0.76"/>
</linearGradient>
</defs>
</svg>
